<?xml version="1.0" encoding="utf-8"?>
<!-- Generator: Adobe Illustrator 21.1.0, SVG Export Plug-In . SVG Version: 6.00 Build 0)  -->
<svg version="1.1" id="Layer_1" xmlns="http://www.w3.org/2000/svg" xmlns:xlink="http://www.w3.org/1999/xlink" x="0px" y="0px"
	 viewBox="0 0 430.8 449.8" style="enable-background:new 0 0 430.8 449.8;" xml:space="preserve">
<style type="text/css">
	.st0{fill:#FEDE3E;}
</style>
<title>Asset 1</title>
<g id="Layer_2">
	<g id="Layer_1-2">
		<path class="st0" d="M237.3,16.9c-0.2,3.6-0.5,5.9-0.5,8.1c0,66.5,0,133,0,199.5c0,2.9-0.8,6.2,1.7,7c9.5-4.5,17.5-9.9,26.3-12
			c15.4-3.7,31.2-3.3,46,3.9c8.4,4.1,15.9,9.1,21.8,16.9c10.8,14.1,9.8,37.3-2.9,50.1c-12.2,12.2-26.9,18-44.2,18.7
			c-17,0.8-32-3.7-45-14.3c-7.4-6.1-13.6-13.3-14.5-23.4c-0.5-5.7-1.1-11.5-1.1-17.2c-0.1-79.2-0.1-158.3,0-237.5
			c0-2.5-0.1-5,0.1-7.5c0.9-9.1,4.3-11.2,12.5-7.1c11.4,5.7,22.6,11.9,33.9,17.8c13.6,7.2,27.3,14.5,40.8,21.8
			c15.4,8.2,30.6,16.6,46,24.7c17.9,9.5,35.9,18.8,53.8,28.3c1.5,0.8,2.9,1.6,4.4,2.3c16.9,9,14.3,6.5,14.4,25.5
			c0.1,68.7,0,137.3,0.1,206c0,5.4-1.8,8.4-6.6,10.9c-23,11.9-45.8,24.3-68.6,36.5c-21,11.2-41.9,22.4-62.8,33.7
			c-24,12.9-48.1,25.6-72.1,38.6c-4.4,2.4-7.6,2.1-11.8-0.6c-6.9-4.4-14.3-7.7-21.5-11.6c-12.2-6.7-24.3-13.5-36.6-20.1
			c-8.3-4.5-17-8.4-25.3-12.9c-18.9-10.1-37.7-20.3-56.6-30.4c-18-9.6-36.1-19.1-54.1-28.8c-3.5-1.9-6.9-4-10.3-6.1s-5.1-4.6-4-8.7
			c0.4-2.3,0.5-4.7,0.4-7c0-64.3,0-128.7,0-193c0-7,0.2-14-0.1-20.9c-0.1-4,1.4-6.6,4.8-8.5C15.7,94.3,26,88.8,36.3,83.3
			c10.1-5.4,20.3-10.7,30.4-16.1c10.6-5.7,21.1-11.6,31.9-17c2.5-1.1,5.3-1.1,7.9-0.1c1.3,0.6,1.3,4.3,1.4,6.6
			c0.2,2.7-0.1,5.3-0.1,8c0,69.7,0,139.3,0.1,209c0.1,3.3,0.4,6.6,0.9,9.9c0.3,2.6,1.8,3.7,4.1,1.8c12.7-10.5,27.4-13,43.4-12.9
			c16.5,0,30.2,5.8,42,16.6c6.6,6,10.3,13.9,11.8,23c3.7,23-13.3,40.3-29.8,46.6c-10.1,3.9-20.8,6.6-31.5,5.5
			c-14.3-1.5-27.9-5.6-38.9-16c-9.7-9.1-14.3-19.8-14.2-33.6c0.2-79.5-0.2-159-0.5-238.4c0-2.6-1-5.3-1.6-7.9
			c-2.8,0.9-5.7,1.5-8.2,2.8c-13.8,7.3-27.6,14.6-41.3,22.1c-9.3,5.1-18.9,9.8-27.6,15.9c-2.8,2-3.1,7.6-4.3,11.6
			c-0.4,1.4-0.1,3-0.1,4.5c0,64.5,0,129,0,193.5c0,6.1,1.1,10.1,7.5,13.3c21.6,10.8,42.8,22.5,64.1,34
			c26.8,14.4,53.6,28.8,80.4,43.3c5.5,3,11.2,5.7,16.7,8.6c8.6,4.5,17.6,8.3,25.6,13.7c6.8,4.7,12.5,3.8,18.9,0.2
			c12.3-6.8,24.6-13.8,37.1-20.4c16-8.5,32.2-16.5,48.2-25c13.6-7.3,27-15,40.6-22.3c12.3-6.6,24.7-12.8,37-19.3
			c9.4-5,18.7-10.2,27.9-15.5c1.4-0.8,2.2-3.1,2.8-4.8c0.5-1.4,0.1-3,0.1-4.5c0-66.7,0-133.3,0-200c0-7.6-1-8.3-8.1-11.7
			c-12.2-6-24.1-12.7-36.1-19.1c-10.3-5.5-20.5-10.9-30.8-16.5s-20.3-11.4-30.5-16.8c-13.5-7.2-27.1-14.1-40.5-21.2
			c-7.7-4.1-15.3-8.6-23-12.7C246,20.2,242.1,18.9,237.3,16.9z M280.8,230.6c-13.1-0.8-23.9,3.5-33,11.6
			c-14.6,13-14.2,27.6-3.1,39.4c18.4,19.6,49,21.1,70.3,4.9c16.3-12.4,17.6-32.1,1.1-45.2C306.2,233.3,293.5,229.5,280.8,230.6z
			 M152.6,350.9c2.8,0,5.7,0.4,8.5-0.1c12.9-2,24.6-6.4,32.3-18.1c10-15.1,5.1-29.2-8.6-38.5c-10.4-7.3-23.1-10.6-35.8-9.5
			c-12.8,1-24,4.9-32.9,14.2c-10.6,10.7-10.5,28,0.2,38.6c0.7,0.7,1.4,1.3,2.2,1.9C128.5,347.6,139.8,351.5,152.6,350.9z"/>
	</g>
</g>
</svg>
